P2
20 20
255
255 255 255 255 211 255 118 255 255 98 255 255 255 255 255 255 255 255 247 255 
255 255 255 255 175 255 255 255 255 255 255 255 255 236 255 255 255 255 255 255 
238 255 178 255 255 255 255 255 255 255 255 255 255 255 255 119 255 255 255 255 
105 255 255 205 255 255 255 255 138 255 255 255 255 255 255 255 255 255 255 30 
91 221 255 255 255 255 29 255 255 255 255 138 255 255 255 255 255 255 255 255 
255 255 255 255 255 255 255 255 255 145 255 255 255 255 255 255 255 255 255 255 
255 140 218 255 255 255 255 255 255 255 21 255 255 255 255 255 255 254 255 255 
255 255 255 255 255 255 255 255 115 120 255 255 255 255 255 255 255 255 96 255 
255 255 255 255 255 255 255 255 255 255 255 255 255 255 255 255 255 255 255 183 
255 255 255 255 255 255 255 255 255 255 255 255 158 255 255 255 255 255 255 97 
255 255 255 255 124 73 255 255 255 255 255 255 255 255 241 255 255 255 97 255 
255 255 255 255 255 190 255 255 255 255 255 255 255 255 255 255 255 255 255 255 
255 255 255 255 255 255 255 255 255 255 255 255 243 255 255 255 255 255 255 255 
255 255 255 255 255 210 255 182 255 255 255 226 255 255 255 255 255 255 255 255 
255 255 255 255 255 255 255 255 255 178 255 255 255 255 255 138 255 255 255 255 
255 255 255 255 255 255 11 255 72 80 28 255 255 255 255 255 255 255 255 255 
255 255 185 255 255 255 255 255 255 255 255 255 255 188 255 255 106 255 255 255 
255 255 255 255 255 52 255 255 255 255 255 255 208 255 161 255 255 52 255 255 
255 255 255 255 255 22 255 255 123 255 255 255 255 255 255 255 255 164 255 255 
255 255 255 255 255 255 255 255 255 255 255 255 255 255 255 255 255 225 13 255 